<svg width="44" height="18" viewBox="0 0 44 18" fill="none" xmlns="http://www.w3.org/2000/svg">
    <path d="M6.16069 2.37589V15.4668H3.39293V5.00302H3.31623L0.318359 6.88228V4.42773L3.55913 2.37589H6.16069ZM14.0533 15.6458C13.1499 15.6458 12.3445 15.4796 11.6371 15.1472C10.9339 14.8148 10.3757 14.3567 9.96236 13.7729C9.54901 13.1891 9.33381 12.5201 9.31676 11.7658H12.0014C12.0313 12.2729 12.2443 12.6841 12.6406 12.9995C13.0369 13.3148 13.5078 13.4725 14.0533 13.4725C14.4879 13.4725 14.8714 13.3766 15.2038 13.1848C15.5405 12.9888 15.8026 12.7182 15.9901 12.373C16.1818 12.0236 16.2777 11.623 16.2777 11.1713C16.2777 10.7111 16.1797 10.3063 15.9837 9.95685C15.7919 9.60742 15.5256 9.33469 15.1847 9.13867C14.8438 8.94265 14.4538 8.84251 14.0149 8.83825C13.6314 8.83825 13.2585 8.91708 12.8963 9.07475C12.5384 9.23242 12.2592 9.44762 12.0589 9.72035L9.59801 9.2793L10.218 2.37589H18.2209V4.63867H12.5L12.1612 7.91779H12.2379C12.468 7.59393 12.8153 7.32546 13.2798 7.11239C13.7443 6.89933 14.2642 6.79279 14.8395 6.79279C15.6278 6.79279 16.331 6.97816 16.9489 7.3489C17.5668 7.71964 18.0547 8.22887 18.4126 8.8766C18.7706 9.52006 18.9474 10.2615 18.9432 11.101C18.9474 11.9831 18.7429 12.7672 18.3295 13.4533C17.9205 14.1351 17.3473 14.6721 16.6101 15.0641C15.8771 15.4519 15.0249 15.6458 14.0533 15.6458ZM26.0064 15.7544C24.907 15.7502 23.9609 15.4796 23.1683 14.9426C22.38 14.4057 21.7727 13.628 21.3466 12.6096C20.9247 11.5911 20.7159 10.3659 20.7202 8.93413C20.7202 7.50657 20.9311 6.28995 21.353 5.28427C21.7791 4.27859 22.3864 3.51367 23.1747 2.98952C23.9673 2.46111 24.9112 2.19691 26.0064 2.19691C27.1016 2.19691 28.0433 2.46111 28.8317 2.98952C29.6243 3.51793 30.2337 4.28498 30.6598 5.29066C31.0859 6.29208 31.2969 7.50657 31.2926 8.93413C31.2926 10.3702 31.0795 11.5975 30.6534 12.6159C30.2315 13.6344 29.6264 14.4121 28.8381 14.949C28.0497 15.486 27.1058 15.7544 26.0064 15.7544ZM26.0064 13.4597C26.7564 13.4597 27.3551 13.0826 27.8026 12.3283C28.25 11.574 28.4716 10.4426 28.4673 8.93413C28.4673 7.94123 28.3651 7.11452 28.1605 6.45401C27.9602 5.7935 27.6747 5.29705 27.304 4.96467C26.9375 4.63228 26.505 4.46609 26.0064 4.46609C25.2607 4.46609 24.6641 4.83896 24.2166 5.58469C23.7692 6.33043 23.5433 7.44691 23.5391 8.93413C23.5391 9.93981 23.6392 10.7793 23.8395 11.4526C24.044 12.1216 24.3317 12.6245 24.7024 12.9611C25.0732 13.2935 25.5078 13.4597 26.0064 13.4597ZM37.6639 17.1032V0.739523H38.7122V17.1032H37.6639ZM40.4444 6.1408C40.3933 5.62518 40.1738 5.22461 39.786 4.9391C39.3983 4.65359 38.872 4.51083 38.2072 4.51083C37.7555 4.51083 37.3741 4.57475 37.063 4.70259C36.752 4.82617 36.5133 4.99876 36.3471 5.22035C36.1852 5.44194 36.1042 5.69336 36.1042 5.97461C36.0957 6.20898 36.1447 6.41353 36.2512 6.58825C36.362 6.76296 36.5133 6.91424 36.7051 7.04208C36.8968 7.16566 37.1184 7.27432 37.3699 7.36807C37.6213 7.45756 37.8897 7.53427 38.1752 7.59819L39.3514 7.87944C39.9224 8.00728 40.4466 8.17773 40.9238 8.3908C41.4011 8.60387 41.8145 8.86594 42.1639 9.17702C42.5133 9.4881 42.7839 9.85458 42.9757 10.2765C43.1717 10.6983 43.2718 11.182 43.2761 11.7275C43.2718 12.5286 43.0673 13.2232 42.6625 13.8113C42.2619 14.3951 41.6824 14.8489 40.9238 15.1728C40.1696 15.4924 39.2598 15.6522 38.1944 15.6522C37.1376 15.6522 36.2172 15.4902 35.4331 15.1664C34.6532 14.8425 34.0439 14.3631 33.6049 13.7282C33.1703 13.089 32.9423 12.2985 32.921 11.3567H35.5993C35.6291 11.7956 35.7548 12.1621 35.9764 12.4561C36.2022 12.7459 36.5027 12.9654 36.8777 13.1145C37.2569 13.2594 37.6852 13.3319 38.1625 13.3319C38.6312 13.3319 39.0382 13.2637 39.3833 13.1273C39.7328 12.9909 40.0034 12.8013 40.1951 12.5584C40.3869 12.3155 40.4828 12.0364 40.4828 11.7211C40.4828 11.427 40.3954 11.1799 40.2207 10.9796C40.0502 10.7793 39.7988 10.6088 39.4664 10.4682C39.1383 10.3276 38.7356 10.1998 38.2583 10.0847L36.8329 9.72674C35.7292 9.45827 34.8578 9.03853 34.2186 8.46751C33.5794 7.89648 33.2619 7.12731 33.2662 6.15998C33.2619 5.36736 33.4728 4.67489 33.899 4.08256C34.3294 3.49023 34.9196 3.02788 35.6696 2.69549C36.4196 2.3631 37.2718 2.19691 38.2264 2.19691C39.198 2.19691 40.046 2.3631 40.7704 2.69549C41.4991 3.02788 42.0659 3.49023 42.4707 4.08256C42.8755 4.67489 43.0843 5.36097 43.0971 6.1408H40.4444Z" fill="#090A0A"/>
</svg>
