<svg width="12" height="10" viewBox="0 0 12 10" fill="none" xmlns="http://www.w3.org/2000/svg">
    <path d="M11.2052 1.9831C10.7862 2.16933 10.3439 2.28573 9.87827 2.35557C10.3439 2.07622 10.7163 1.63392 10.8793 1.0985C10.437 1.35457 9.94811 1.5408 9.41269 1.6572C8.99367 1.2149 8.38842 0.935547 7.7366 0.935547C6.47954 0.935547 5.45526 1.95982 5.45526 3.21689C5.45526 3.40312 5.47854 3.56608 5.5251 3.72903C3.6395 3.63591 1.94013 2.72803 0.799457 1.33129C0.613225 1.68048 0.49683 2.05294 0.49683 2.47196C0.49683 3.26345 0.892573 3.96182 1.52111 4.38084C1.14864 4.35756 0.799457 4.26445 0.473551 4.10149V4.12477C0.473551 5.24216 1.26504 6.17333 2.31259 6.38284C2.12636 6.42939 1.91685 6.45267 1.70734 6.45267C1.56766 6.45267 1.40471 6.42939 1.26504 6.40612C1.56766 7.314 2.40571 7.98909 3.40671 7.98909C2.61522 8.59434 1.6375 8.96681 0.566667 8.96681C0.380435 8.96681 0.194203 8.96681 0.03125 8.94353C1.05553 9.59534 2.24276 9.96781 3.54638 9.96781C7.75988 9.96781 10.0645 6.47595 10.0645 3.44968C10.0645 3.35656 10.0645 3.24017 10.0645 3.14705C10.5068 2.84443 10.9025 2.44868 11.2052 1.9831Z" fill="white"/>
</svg>
