<svg width="20" height="21" viewBox="0 0 20 21" fill="none" xmlns="http://www.w3.org/2000/svg">
    <path fill-rule="evenodd" clip-rule="evenodd" d="M10 18.4663C14.4183 18.4663 18 14.8846 18 10.4663C18 6.04803 14.4183 2.46631 10 2.46631C5.58172 2.46631 2 6.04803 2 10.4663C2 14.8846 5.58172 18.4663 10 18.4663ZM13.7071 9.17342C14.0976 8.78289 14.0976 8.14973 13.7071 7.7592C13.3166 7.36868 12.6834 7.36868 12.2929 7.7592L9 11.0521L7.70711 9.7592C7.31658 9.36868 6.68342 9.36868 6.29289 9.7592C5.90237 10.1497 5.90237 10.7829 6.29289 11.1734L8.29289 13.1734C8.68342 13.5639 9.31658 13.5639 9.70711 13.1734L13.7071 9.17342Z" fill="#71717A"/>
</svg>
